<mxfile host="app.diagrams.net" modified="2024-06-29T07:01:06.752Z" agent="Mozilla/5.0 (X11; Linux x86_64) AppleWebKit/537.36 (KHTML, like Gecko) Chrome/126.0.0.0 Safari/537.36" etag="-5rwFMmXDgbBchE1ssPr" version="24.6.4" type="device">
  <diagram name="Page-1" id="oLhvr5aKt0S7IJzBzjf_">
    <mxGraphModel dx="1434" dy="746" grid="1" gridSize="10" guides="1" tooltips="1" connect="1" arrows="1" fold="1" page="1" pageScale="1" pageWidth="850" pageHeight="1100" math="0" shadow="0">
      <root>
        <mxCell id="0" />
        <mxCell id="1" parent="0" />
        <mxCell id="fsOWVvnDmd0xWPE7HJZ0-1" value="&lt;font size=&quot;1&quot; style=&quot;&quot;&gt;&lt;b style=&quot;font-size: 20px;&quot;&gt;C(t-1)&lt;/b&gt;&lt;/font&gt;" style="ellipse;shape=cloud;whiteSpace=wrap;html=1;fillColor=#ffe6cc;strokeColor=#d79b00;" parent="1" vertex="1">
          <mxGeometry x="40" y="100" width="120" height="100" as="geometry" />
        </mxCell>
        <mxCell id="fsOWVvnDmd0xWPE7HJZ0-2" value="" style="endArrow=none;html=1;rounded=0;exitX=0.875;exitY=0.5;exitDx=0;exitDy=0;exitPerimeter=0;" parent="1" source="fsOWVvnDmd0xWPE7HJZ0-1" edge="1">
          <mxGeometry width="50" height="50" relative="1" as="geometry">
            <mxPoint x="400" y="300" as="sourcePoint" />
            <mxPoint x="230" y="150" as="targetPoint" />
          </mxGeometry>
        </mxCell>
        <mxCell id="fsOWVvnDmd0xWPE7HJZ0-3" value="&lt;font size=&quot;1&quot; style=&quot;&quot;&gt;&lt;b style=&quot;font-size: 20px;&quot;&gt;X&lt;/b&gt;&lt;/font&gt;" style="shape=parallelogram;perimeter=parallelogramPerimeter;whiteSpace=wrap;html=1;fixedSize=1;fillColor=#f8cecc;strokeColor=#b85450;" parent="1" vertex="1">
          <mxGeometry x="220" y="120" width="90" height="55" as="geometry" />
        </mxCell>
        <mxCell id="fsOWVvnDmd0xWPE7HJZ0-4" value="&lt;font size=&quot;1&quot; style=&quot;&quot;&gt;&lt;b style=&quot;font-size: 20px;&quot;&gt;+&lt;/b&gt;&lt;/font&gt;" style="shape=parallelogram;perimeter=parallelogramPerimeter;whiteSpace=wrap;html=1;fixedSize=1;fillColor=#f8cecc;strokeColor=#b85450;" parent="1" vertex="1">
          <mxGeometry x="410" y="120" width="90" height="52.5" as="geometry" />
        </mxCell>
        <mxCell id="fsOWVvnDmd0xWPE7HJZ0-5" value="" style="endArrow=classic;html=1;rounded=0;exitX=0.884;exitY=0.564;exitDx=0;exitDy=0;exitPerimeter=0;" parent="1" source="fsOWVvnDmd0xWPE7HJZ0-4" edge="1">
          <mxGeometry width="50" height="50" relative="1" as="geometry">
            <mxPoint x="310" y="290" as="sourcePoint" />
            <mxPoint x="760" y="150" as="targetPoint" />
          </mxGeometry>
        </mxCell>
        <mxCell id="fsOWVvnDmd0xWPE7HJZ0-6" value="" style="endArrow=none;html=1;rounded=0;exitX=0.883;exitY=0.554;exitDx=0;exitDy=0;entryX=0.073;entryY=0.575;entryDx=0;entryDy=0;entryPerimeter=0;exitPerimeter=0;" parent="1" source="fsOWVvnDmd0xWPE7HJZ0-3" target="fsOWVvnDmd0xWPE7HJZ0-4" edge="1">
          <mxGeometry width="50" height="50" relative="1" as="geometry">
            <mxPoint x="310" y="290" as="sourcePoint" />
            <mxPoint x="360" y="240" as="targetPoint" />
          </mxGeometry>
        </mxCell>
        <mxCell id="fsOWVvnDmd0xWPE7HJZ0-7" value="&lt;font size=&quot;1&quot; style=&quot;&quot;&gt;&lt;b style=&quot;font-size: 20px;&quot;&gt;X(t)&lt;/b&gt;&lt;/font&gt;" style="ellipse;shape=cloud;whiteSpace=wrap;html=1;fillColor=#ffe6cc;strokeColor=#d79b00;" parent="1" vertex="1">
          <mxGeometry x="40" y="280" width="120" height="80" as="geometry" />
        </mxCell>
        <mxCell id="fsOWVvnDmd0xWPE7HJZ0-8" value="&lt;font size=&quot;1&quot; style=&quot;&quot;&gt;&lt;b style=&quot;font-size: 20px;&quot;&gt;h(t-1)&lt;/b&gt;&lt;/font&gt;" style="ellipse;shape=cloud;whiteSpace=wrap;html=1;fillColor=#ffe6cc;strokeColor=#d79b00;" parent="1" vertex="1">
          <mxGeometry x="40" y="420" width="120" height="80" as="geometry" />
        </mxCell>
        <mxCell id="fsOWVvnDmd0xWPE7HJZ0-9" value="" style="endArrow=none;html=1;rounded=0;exitX=0.875;exitY=0.5;exitDx=0;exitDy=0;exitPerimeter=0;" parent="1" source="fsOWVvnDmd0xWPE7HJZ0-7" edge="1">
          <mxGeometry width="50" height="50" relative="1" as="geometry">
            <mxPoint x="330" y="320" as="sourcePoint" />
            <mxPoint x="200" y="320" as="targetPoint" />
          </mxGeometry>
        </mxCell>
        <mxCell id="fsOWVvnDmd0xWPE7HJZ0-10" value="" style="endArrow=none;html=1;rounded=0;exitX=0.875;exitY=0.5;exitDx=0;exitDy=0;exitPerimeter=0;" parent="1" source="fsOWVvnDmd0xWPE7HJZ0-8" edge="1">
          <mxGeometry width="50" height="50" relative="1" as="geometry">
            <mxPoint x="330" y="320" as="sourcePoint" />
            <mxPoint x="200" y="460" as="targetPoint" />
          </mxGeometry>
        </mxCell>
        <mxCell id="fsOWVvnDmd0xWPE7HJZ0-11" value="" style="endArrow=none;html=1;rounded=0;" parent="1" edge="1">
          <mxGeometry width="50" height="50" relative="1" as="geometry">
            <mxPoint x="200" y="320" as="sourcePoint" />
            <mxPoint x="200" y="460" as="targetPoint" />
          </mxGeometry>
        </mxCell>
        <mxCell id="fsOWVvnDmd0xWPE7HJZ0-12" value="" style="endArrow=none;html=1;rounded=0;" parent="1" edge="1">
          <mxGeometry width="50" height="50" relative="1" as="geometry">
            <mxPoint x="200" y="400" as="sourcePoint" />
            <mxPoint x="590" y="400" as="targetPoint" />
          </mxGeometry>
        </mxCell>
        <mxCell id="fsOWVvnDmd0xWPE7HJZ0-13" value="&lt;b&gt;&lt;font style=&quot;font-size: 20px;&quot;&gt;Sigmoid&lt;/font&gt;&lt;/b&gt;" style="ellipse;whiteSpace=wrap;html=1;align=center;newEdgeStyle={&quot;edgeStyle&quot;:&quot;entityRelationEdgeStyle&quot;,&quot;startArrow&quot;:&quot;none&quot;,&quot;endArrow&quot;:&quot;none&quot;,&quot;segment&quot;:10,&quot;curved&quot;:1,&quot;sourcePerimeterSpacing&quot;:0,&quot;targetPerimeterSpacing&quot;:0};treeFolding=1;treeMoving=1;fillColor=#b0e3e6;strokeColor=#0e8088;" parent="1" vertex="1">
          <mxGeometry x="215" y="260" width="100" height="40" as="geometry" />
        </mxCell>
        <mxCell id="fsOWVvnDmd0xWPE7HJZ0-14" value="" style="endArrow=none;html=1;rounded=0;entryX=0.46;entryY=0.988;entryDx=0;entryDy=0;entryPerimeter=0;" parent="1" target="fsOWVvnDmd0xWPE7HJZ0-13" edge="1">
          <mxGeometry width="50" height="50" relative="1" as="geometry">
            <mxPoint x="260" y="400" as="sourcePoint" />
            <mxPoint x="310" y="280" as="targetPoint" />
          </mxGeometry>
        </mxCell>
        <mxCell id="fsOWVvnDmd0xWPE7HJZ0-15" value="" style="endArrow=classic;html=1;rounded=0;exitX=0.445;exitY=0.002;exitDx=0;exitDy=0;exitPerimeter=0;entryX=0.435;entryY=0.984;entryDx=0;entryDy=0;entryPerimeter=0;" parent="1" source="fsOWVvnDmd0xWPE7HJZ0-13" target="fsOWVvnDmd0xWPE7HJZ0-3" edge="1">
          <mxGeometry width="50" height="50" relative="1" as="geometry">
            <mxPoint x="250" y="190" as="sourcePoint" />
            <mxPoint x="300" y="140" as="targetPoint" />
          </mxGeometry>
        </mxCell>
        <mxCell id="fsOWVvnDmd0xWPE7HJZ0-16" value="&lt;b&gt;&lt;font style=&quot;font-size: 20px;&quot;&gt;X&lt;/font&gt;&lt;/b&gt;" style="shape=parallelogram;perimeter=parallelogramPerimeter;whiteSpace=wrap;html=1;fixedSize=1;fillColor=#f8cecc;strokeColor=#b85450;" parent="1" vertex="1">
          <mxGeometry x="410" y="220" width="90" height="60" as="geometry" />
        </mxCell>
        <mxCell id="fsOWVvnDmd0xWPE7HJZ0-17" value="&lt;b&gt;&lt;font style=&quot;font-size: 20px;&quot;&gt;Sigmoid&lt;/font&gt;&lt;/b&gt;" style="ellipse;whiteSpace=wrap;html=1;align=center;newEdgeStyle={&quot;edgeStyle&quot;:&quot;entityRelationEdgeStyle&quot;,&quot;startArrow&quot;:&quot;none&quot;,&quot;endArrow&quot;:&quot;none&quot;,&quot;segment&quot;:10,&quot;curved&quot;:1,&quot;sourcePerimeterSpacing&quot;:0,&quot;targetPerimeterSpacing&quot;:0};treeFolding=1;treeMoving=1;fillColor=#b0e3e6;strokeColor=#0e8088;" parent="1" vertex="1">
          <mxGeometry x="310" y="330" width="90" height="30" as="geometry" />
        </mxCell>
        <mxCell id="fsOWVvnDmd0xWPE7HJZ0-18" value="&lt;b&gt;&lt;font style=&quot;font-size: 20px;&quot;&gt;tanh&lt;/font&gt;&lt;/b&gt;" style="ellipse;whiteSpace=wrap;html=1;align=center;newEdgeStyle={&quot;edgeStyle&quot;:&quot;entityRelationEdgeStyle&quot;,&quot;startArrow&quot;:&quot;none&quot;,&quot;endArrow&quot;:&quot;none&quot;,&quot;segment&quot;:10,&quot;curved&quot;:1,&quot;sourcePerimeterSpacing&quot;:0,&quot;targetPerimeterSpacing&quot;:0};treeFolding=1;treeMoving=1;fillColor=#b0e3e6;strokeColor=#0e8088;" parent="1" vertex="1">
          <mxGeometry x="420" y="330" width="70" height="27.5" as="geometry" />
        </mxCell>
        <mxCell id="fsOWVvnDmd0xWPE7HJZ0-19" value="" style="endArrow=none;html=1;rounded=0;entryX=0.45;entryY=0.98;entryDx=0;entryDy=0;entryPerimeter=0;" parent="1" target="fsOWVvnDmd0xWPE7HJZ0-17" edge="1">
          <mxGeometry width="50" height="50" relative="1" as="geometry">
            <mxPoint x="350" y="400" as="sourcePoint" />
            <mxPoint x="470" y="250" as="targetPoint" />
          </mxGeometry>
        </mxCell>
        <mxCell id="fsOWVvnDmd0xWPE7HJZ0-20" value="" style="endArrow=none;html=1;rounded=0;exitX=0.44;exitY=-0.016;exitDx=0;exitDy=0;exitPerimeter=0;" parent="1" source="fsOWVvnDmd0xWPE7HJZ0-17" edge="1">
          <mxGeometry width="50" height="50" relative="1" as="geometry">
            <mxPoint x="390" y="350" as="sourcePoint" />
            <mxPoint x="350" y="250" as="targetPoint" />
          </mxGeometry>
        </mxCell>
        <mxCell id="fsOWVvnDmd0xWPE7HJZ0-21" value="" style="endArrow=classic;html=1;rounded=0;entryX=0;entryY=0.5;entryDx=0;entryDy=0;" parent="1" target="fsOWVvnDmd0xWPE7HJZ0-16" edge="1">
          <mxGeometry width="50" height="50" relative="1" as="geometry">
            <mxPoint x="350" y="250" as="sourcePoint" />
            <mxPoint x="440" y="260" as="targetPoint" />
          </mxGeometry>
        </mxCell>
        <mxCell id="fsOWVvnDmd0xWPE7HJZ0-22" value="" style="endArrow=none;html=1;rounded=0;entryX=0.437;entryY=0.996;entryDx=0;entryDy=0;entryPerimeter=0;" parent="1" target="fsOWVvnDmd0xWPE7HJZ0-18" edge="1">
          <mxGeometry width="50" height="50" relative="1" as="geometry">
            <mxPoint x="450" y="400" as="sourcePoint" />
            <mxPoint x="450" y="360" as="targetPoint" />
          </mxGeometry>
        </mxCell>
        <mxCell id="fsOWVvnDmd0xWPE7HJZ0-23" value="" style="endArrow=none;html=1;rounded=0;entryX=0.444;entryY=1.004;entryDx=0;entryDy=0;entryPerimeter=0;exitX=0.433;exitY=-0.012;exitDx=0;exitDy=0;exitPerimeter=0;" parent="1" source="fsOWVvnDmd0xWPE7HJZ0-18" target="fsOWVvnDmd0xWPE7HJZ0-16" edge="1">
          <mxGeometry width="50" height="50" relative="1" as="geometry">
            <mxPoint x="430" y="340" as="sourcePoint" />
            <mxPoint x="480" y="290" as="targetPoint" />
          </mxGeometry>
        </mxCell>
        <mxCell id="fsOWVvnDmd0xWPE7HJZ0-24" value="" style="endArrow=none;html=1;rounded=0;exitX=0.443;exitY=-0.007;exitDx=0;exitDy=0;exitPerimeter=0;entryX=0.441;entryY=1.006;entryDx=0;entryDy=0;entryPerimeter=0;" parent="1" source="fsOWVvnDmd0xWPE7HJZ0-16" target="fsOWVvnDmd0xWPE7HJZ0-4" edge="1">
          <mxGeometry width="50" height="50" relative="1" as="geometry">
            <mxPoint x="430" y="230" as="sourcePoint" />
            <mxPoint x="480" y="180" as="targetPoint" />
          </mxGeometry>
        </mxCell>
        <mxCell id="fsOWVvnDmd0xWPE7HJZ0-25" value="&lt;b&gt;&lt;font style=&quot;font-size: 20px;&quot;&gt;Sigmoid&lt;/font&gt;&lt;/b&gt;" style="ellipse;whiteSpace=wrap;html=1;align=center;newEdgeStyle={&quot;edgeStyle&quot;:&quot;entityRelationEdgeStyle&quot;,&quot;startArrow&quot;:&quot;none&quot;,&quot;endArrow&quot;:&quot;none&quot;,&quot;segment&quot;:10,&quot;curved&quot;:1,&quot;sourcePerimeterSpacing&quot;:0,&quot;targetPerimeterSpacing&quot;:0};treeFolding=1;treeMoving=1;fillColor=#b0e3e6;strokeColor=#0e8088;" parent="1" vertex="1">
          <mxGeometry x="550" y="321.25" width="90" height="47.5" as="geometry" />
        </mxCell>
        <mxCell id="fsOWVvnDmd0xWPE7HJZ0-26" value="" style="endArrow=none;html=1;rounded=0;entryX=0.443;entryY=0.998;entryDx=0;entryDy=0;entryPerimeter=0;" parent="1" target="fsOWVvnDmd0xWPE7HJZ0-25" edge="1">
          <mxGeometry width="50" height="50" relative="1" as="geometry">
            <mxPoint x="590" y="400" as="sourcePoint" />
            <mxPoint x="480" y="320" as="targetPoint" />
          </mxGeometry>
        </mxCell>
        <mxCell id="fsOWVvnDmd0xWPE7HJZ0-27" value="&lt;b&gt;&lt;font style=&quot;font-size: 20px;&quot;&gt;X&lt;/font&gt;&lt;/b&gt;" style="shape=parallelogram;perimeter=parallelogramPerimeter;whiteSpace=wrap;html=1;fixedSize=1;fillColor=#f8cecc;strokeColor=#b85450;" parent="1" vertex="1">
          <mxGeometry x="650" y="260" width="90" height="60" as="geometry" />
        </mxCell>
        <mxCell id="fsOWVvnDmd0xWPE7HJZ0-28" value="" style="endArrow=none;html=1;rounded=0;exitX=0.443;exitY=0.044;exitDx=0;exitDy=0;exitPerimeter=0;" parent="1" source="fsOWVvnDmd0xWPE7HJZ0-25" edge="1">
          <mxGeometry width="50" height="50" relative="1" as="geometry">
            <mxPoint x="340" y="360" as="sourcePoint" />
            <mxPoint x="590" y="290" as="targetPoint" />
          </mxGeometry>
        </mxCell>
        <mxCell id="fsOWVvnDmd0xWPE7HJZ0-29" value="" style="endArrow=classic;html=1;rounded=0;entryX=0;entryY=0.5;entryDx=0;entryDy=0;" parent="1" target="fsOWVvnDmd0xWPE7HJZ0-27" edge="1">
          <mxGeometry width="50" height="50" relative="1" as="geometry">
            <mxPoint x="590" y="290" as="sourcePoint" />
            <mxPoint x="550" y="260" as="targetPoint" />
          </mxGeometry>
        </mxCell>
        <mxCell id="fsOWVvnDmd0xWPE7HJZ0-30" value="&lt;b&gt;&lt;font style=&quot;font-size: 20px;&quot;&gt;tanh&lt;/font&gt;&lt;/b&gt;" style="ellipse;whiteSpace=wrap;html=1;align=center;newEdgeStyle={&quot;edgeStyle&quot;:&quot;entityRelationEdgeStyle&quot;,&quot;startArrow&quot;:&quot;none&quot;,&quot;endArrow&quot;:&quot;none&quot;,&quot;segment&quot;:10,&quot;curved&quot;:1,&quot;sourcePerimeterSpacing&quot;:0,&quot;targetPerimeterSpacing&quot;:0};treeFolding=1;treeMoving=1;fillColor=#b0e3e6;strokeColor=#0e8088;" parent="1" vertex="1">
          <mxGeometry x="670" y="200" width="70" height="30" as="geometry" />
        </mxCell>
        <mxCell id="fsOWVvnDmd0xWPE7HJZ0-31" value="" style="endArrow=none;html=1;rounded=0;" parent="1" edge="1">
          <mxGeometry width="50" height="50" relative="1" as="geometry">
            <mxPoint x="700" y="200" as="sourcePoint" />
            <mxPoint x="700" y="150" as="targetPoint" />
          </mxGeometry>
        </mxCell>
        <mxCell id="fsOWVvnDmd0xWPE7HJZ0-32" value="" style="endArrow=none;html=1;rounded=0;entryX=0.434;entryY=1.004;entryDx=0;entryDy=0;entryPerimeter=0;exitX=0.556;exitY=-0.002;exitDx=0;exitDy=0;exitPerimeter=0;" parent="1" source="fsOWVvnDmd0xWPE7HJZ0-27" target="fsOWVvnDmd0xWPE7HJZ0-30" edge="1">
          <mxGeometry width="50" height="50" relative="1" as="geometry">
            <mxPoint x="650" y="270" as="sourcePoint" />
            <mxPoint x="700" y="220" as="targetPoint" />
          </mxGeometry>
        </mxCell>
        <mxCell id="fsOWVvnDmd0xWPE7HJZ0-33" value="" style="endArrow=none;html=1;rounded=0;entryX=0.553;entryY=1;entryDx=0;entryDy=0;entryPerimeter=0;" parent="1" target="fsOWVvnDmd0xWPE7HJZ0-27" edge="1">
          <mxGeometry width="50" height="50" relative="1" as="geometry">
            <mxPoint x="700" y="400" as="sourcePoint" />
            <mxPoint x="660" y="270" as="targetPoint" />
          </mxGeometry>
        </mxCell>
        <mxCell id="fsOWVvnDmd0xWPE7HJZ0-34" value="" style="endArrow=classic;html=1;rounded=0;" parent="1" edge="1">
          <mxGeometry width="50" height="50" relative="1" as="geometry">
            <mxPoint x="700" y="400" as="sourcePoint" />
            <mxPoint x="760" y="400" as="targetPoint" />
          </mxGeometry>
        </mxCell>
        <mxCell id="fsOWVvnDmd0xWPE7HJZ0-35" value="&lt;font style=&quot;font-size: 20px;&quot;&gt;&lt;b&gt;C(t)&lt;/b&gt;&lt;/font&gt;" style="text;html=1;align=center;verticalAlign=middle;resizable=0;points=[];autosize=1;strokeColor=none;fillColor=none;" parent="1" vertex="1">
          <mxGeometry x="750" y="127.5" width="60" height="40" as="geometry" />
        </mxCell>
        <mxCell id="fsOWVvnDmd0xWPE7HJZ0-36" value="&lt;font style=&quot;font-size: 20px;&quot;&gt;&lt;b&gt;h(t)&lt;/b&gt;&lt;/font&gt;" style="text;html=1;align=center;verticalAlign=middle;resizable=0;points=[];autosize=1;strokeColor=none;fillColor=none;" parent="1" vertex="1">
          <mxGeometry x="750" y="375" width="60" height="40" as="geometry" />
        </mxCell>
        <mxCell id="fsOWVvnDmd0xWPE7HJZ0-37" value="" style="endArrow=none;dashed=1;html=1;dashPattern=1 3;strokeWidth=2;rounded=0;" parent="1" edge="1">
          <mxGeometry width="50" height="50" relative="1" as="geometry">
            <mxPoint x="210" y="410" as="sourcePoint" />
            <mxPoint x="210" y="240" as="targetPoint" />
          </mxGeometry>
        </mxCell>
        <mxCell id="fsOWVvnDmd0xWPE7HJZ0-38" value="" style="endArrow=none;dashed=1;html=1;dashPattern=1 3;strokeWidth=2;rounded=0;" parent="1" edge="1">
          <mxGeometry width="50" height="50" relative="1" as="geometry">
            <mxPoint x="210" y="240" as="sourcePoint" />
            <mxPoint x="320" y="240" as="targetPoint" />
          </mxGeometry>
        </mxCell>
        <mxCell id="fsOWVvnDmd0xWPE7HJZ0-39" value="" style="endArrow=none;dashed=1;html=1;dashPattern=1 3;strokeWidth=2;rounded=0;entryX=0.988;entryY=0.163;entryDx=0;entryDy=0;entryPerimeter=0;" parent="1" target="fsOWVvnDmd0xWPE7HJZ0-40" edge="1">
          <mxGeometry width="50" height="50" relative="1" as="geometry">
            <mxPoint x="210" y="410" as="sourcePoint" />
            <mxPoint x="310" y="410" as="targetPoint" />
          </mxGeometry>
        </mxCell>
        <mxCell id="fsOWVvnDmd0xWPE7HJZ0-40" value="&lt;h5&gt;&lt;i&gt;&lt;font style=&quot;font-size: 15px;&quot;&gt;Forget Gate&lt;/font&gt;&lt;/i&gt;&lt;/h5&gt;" style="text;html=1;align=center;verticalAlign=middle;resizable=0;points=[];autosize=1;strokeColor=none;fillColor=none;" parent="1" vertex="1">
          <mxGeometry x="205" y="400" width="110" height="60" as="geometry" />
        </mxCell>
        <mxCell id="fsOWVvnDmd0xWPE7HJZ0-41" value="" style="endArrow=none;dashed=1;html=1;rounded=0;" parent="1" edge="1">
          <mxGeometry width="50" height="50" relative="1" as="geometry">
            <mxPoint x="310" y="320" as="sourcePoint" />
            <mxPoint x="400" y="320" as="targetPoint" />
          </mxGeometry>
        </mxCell>
        <mxCell id="fsOWVvnDmd0xWPE7HJZ0-42" value="" style="endArrow=none;dashed=1;html=1;rounded=0;" parent="1" edge="1">
          <mxGeometry width="50" height="50" relative="1" as="geometry">
            <mxPoint x="310" y="410" as="sourcePoint" />
            <mxPoint x="400" y="410" as="targetPoint" />
          </mxGeometry>
        </mxCell>
        <mxCell id="fsOWVvnDmd0xWPE7HJZ0-43" value="" style="endArrow=none;dashed=1;html=1;rounded=0;" parent="1" edge="1">
          <mxGeometry width="50" height="50" relative="1" as="geometry">
            <mxPoint x="400" y="410" as="sourcePoint" />
            <mxPoint x="400" y="320" as="targetPoint" />
            <Array as="points">
              <mxPoint x="400" y="370" />
            </Array>
          </mxGeometry>
        </mxCell>
        <mxCell id="fsOWVvnDmd0xWPE7HJZ0-44" value="" style="endArrow=none;dashed=1;html=1;rounded=0;" parent="1" edge="1">
          <mxGeometry width="50" height="50" relative="1" as="geometry">
            <mxPoint x="310" y="410" as="sourcePoint" />
            <mxPoint x="310" y="320" as="targetPoint" />
          </mxGeometry>
        </mxCell>
        <mxCell id="fsOWVvnDmd0xWPE7HJZ0-45" value="" style="endArrow=none;dashed=1;html=1;dashPattern=1 3;strokeWidth=2;rounded=0;" parent="1" edge="1">
          <mxGeometry width="50" height="50" relative="1" as="geometry">
            <mxPoint x="320" y="300" as="sourcePoint" />
            <mxPoint x="320" y="240" as="targetPoint" />
          </mxGeometry>
        </mxCell>
        <mxCell id="fsOWVvnDmd0xWPE7HJZ0-46" value="" style="endArrow=none;dashed=1;html=1;dashPattern=1 3;strokeWidth=2;rounded=0;" parent="1" edge="1">
          <mxGeometry width="50" height="50" relative="1" as="geometry">
            <mxPoint x="300" y="310" as="sourcePoint" />
            <mxPoint x="320" y="310" as="targetPoint" />
          </mxGeometry>
        </mxCell>
        <mxCell id="fsOWVvnDmd0xWPE7HJZ0-47" value="" style="endArrow=none;dashed=1;html=1;dashPattern=1 3;strokeWidth=2;rounded=0;" parent="1" edge="1">
          <mxGeometry width="50" height="50" relative="1" as="geometry">
            <mxPoint x="300" y="405" as="sourcePoint" />
            <mxPoint x="300" y="310" as="targetPoint" />
          </mxGeometry>
        </mxCell>
        <mxCell id="fsOWVvnDmd0xWPE7HJZ0-48" value="&lt;h5&gt;&lt;i&gt;&lt;font style=&quot;font-size: 15px;&quot;&gt;Input Gate&lt;/font&gt;&lt;/i&gt;&lt;/h5&gt;" style="text;html=1;align=center;verticalAlign=middle;resizable=0;points=[];autosize=1;strokeColor=none;fillColor=none;" parent="1" vertex="1">
          <mxGeometry x="300" y="400" width="100" height="60" as="geometry" />
        </mxCell>
        <mxCell id="fsOWVvnDmd0xWPE7HJZ0-49" value="" style="endArrow=none;dashed=1;html=1;dashPattern=1 3;strokeWidth=2;rounded=0;" parent="1" edge="1">
          <mxGeometry width="50" height="50" relative="1" as="geometry">
            <mxPoint x="540" y="410" as="sourcePoint" />
            <mxPoint x="540" y="330" as="targetPoint" />
          </mxGeometry>
        </mxCell>
        <mxCell id="fsOWVvnDmd0xWPE7HJZ0-50" value="" style="endArrow=none;dashed=1;html=1;dashPattern=1 3;strokeWidth=2;rounded=0;" parent="1" edge="1">
          <mxGeometry width="50" height="50" relative="1" as="geometry">
            <mxPoint x="540" y="410" as="sourcePoint" />
            <mxPoint x="650" y="410" as="targetPoint" />
          </mxGeometry>
        </mxCell>
        <mxCell id="fsOWVvnDmd0xWPE7HJZ0-51" value="" style="endArrow=none;dashed=1;html=1;dashPattern=1 3;strokeWidth=2;rounded=0;" parent="1" edge="1">
          <mxGeometry width="50" height="50" relative="1" as="geometry">
            <mxPoint x="650" y="410" as="sourcePoint" />
            <mxPoint x="650" y="330" as="targetPoint" />
          </mxGeometry>
        </mxCell>
        <mxCell id="fsOWVvnDmd0xWPE7HJZ0-52" value="" style="endArrow=none;dashed=1;html=1;dashPattern=1 3;strokeWidth=2;rounded=0;" parent="1" edge="1">
          <mxGeometry width="50" height="50" relative="1" as="geometry">
            <mxPoint x="540" y="330" as="sourcePoint" />
            <mxPoint x="650" y="330" as="targetPoint" />
          </mxGeometry>
        </mxCell>
        <mxCell id="fsOWVvnDmd0xWPE7HJZ0-53" value="&lt;h5&gt;&lt;i&gt;&lt;font style=&quot;font-size: 15px;&quot;&gt;Output Gate&lt;/font&gt;&lt;/i&gt;&lt;/h5&gt;" style="text;html=1;align=center;verticalAlign=middle;resizable=0;points=[];autosize=1;" parent="1" vertex="1">
          <mxGeometry x="545" y="400" width="110" height="60" as="geometry" />
        </mxCell>
        <mxCell id="fsOWVvnDmd0xWPE7HJZ0-54" value="" style="endArrow=none;dashed=1;html=1;dashPattern=1 3;strokeWidth=2;rounded=0;" parent="1" edge="1">
          <mxGeometry width="50" height="50" relative="1" as="geometry">
            <mxPoint x="200" y="200" as="sourcePoint" />
            <mxPoint x="520" y="200" as="targetPoint" />
          </mxGeometry>
        </mxCell>
        <mxCell id="fsOWVvnDmd0xWPE7HJZ0-55" value="" style="endArrow=none;dashed=1;html=1;dashPattern=1 3;strokeWidth=2;rounded=0;" parent="1" edge="1">
          <mxGeometry width="50" height="50" relative="1" as="geometry">
            <mxPoint x="200" y="200" as="sourcePoint" />
            <mxPoint x="200" y="110" as="targetPoint" />
          </mxGeometry>
        </mxCell>
        <mxCell id="fsOWVvnDmd0xWPE7HJZ0-56" value="" style="endArrow=none;dashed=1;html=1;dashPattern=1 3;strokeWidth=2;rounded=0;" parent="1" edge="1">
          <mxGeometry width="50" height="50" relative="1" as="geometry">
            <mxPoint x="200" y="110" as="sourcePoint" />
            <mxPoint x="510" y="110" as="targetPoint" />
          </mxGeometry>
        </mxCell>
        <mxCell id="fsOWVvnDmd0xWPE7HJZ0-57" value="" style="endArrow=none;dashed=1;html=1;dashPattern=1 3;strokeWidth=2;rounded=0;" parent="1" edge="1">
          <mxGeometry width="50" height="50" relative="1" as="geometry">
            <mxPoint x="510" y="200" as="sourcePoint" />
            <mxPoint x="510" y="110" as="targetPoint" />
          </mxGeometry>
        </mxCell>
        <mxCell id="fsOWVvnDmd0xWPE7HJZ0-58" value="" style="endArrow=none;html=1;rounded=0;fillColor=#b1ddf0;strokeColor=#000000;" parent="1" edge="1">
          <mxGeometry width="50" height="50" relative="1" as="geometry">
            <mxPoint x="20" y="520" as="sourcePoint" />
            <mxPoint x="20" y="80" as="targetPoint" />
          </mxGeometry>
        </mxCell>
        <mxCell id="fsOWVvnDmd0xWPE7HJZ0-59" value="" style="endArrow=none;html=1;rounded=0;fillColor=#b1ddf0;strokeColor=#000000;" parent="1" edge="1">
          <mxGeometry width="50" height="50" relative="1" as="geometry">
            <mxPoint x="20" y="80" as="sourcePoint" />
            <mxPoint x="800" y="80" as="targetPoint" />
          </mxGeometry>
        </mxCell>
        <mxCell id="fsOWVvnDmd0xWPE7HJZ0-60" value="" style="endArrow=none;html=1;rounded=1;curved=0;strokeColor=#000000;" parent="1" edge="1">
          <mxGeometry width="50" height="50" relative="1" as="geometry">
            <mxPoint x="20" y="520" as="sourcePoint" />
            <mxPoint x="800" y="520" as="targetPoint" />
          </mxGeometry>
        </mxCell>
        <mxCell id="fsOWVvnDmd0xWPE7HJZ0-61" value="" style="endArrow=none;html=1;rounded=0;fillColor=#b1ddf0;strokeColor=#000000;" parent="1" edge="1">
          <mxGeometry width="50" height="50" relative="1" as="geometry">
            <mxPoint x="800" y="520" as="sourcePoint" />
            <mxPoint x="800" y="80" as="targetPoint" />
          </mxGeometry>
        </mxCell>
      </root>
    </mxGraphModel>
  </diagram>
</mxfile>
